#N canvas 478 82 887 681 10;
#X obj 62 160 gemwin;
#X msg 63 132 create \, 1;
#X msg 127 134 destroy \, 0;
#X obj 158 182 tgl 15 0 empty empty empty 17 7 0 10 -262144 -1 -1 0
1;
#X obj 82 199 pix_video;
#X obj -16 448 pix_texture;
#X obj 10 342 separator;
#X msg 182 141 reset;
#X obj 437 409 pix_image;
#X obj 421 390 tgl 15 0 empty empty empty 17 7 0 10 -262144 -1 -1 0
1;
#X obj 425 230 openpanel;
#X obj 424 210 bng 15 250 50 0 empty empty empty 17 7 0 10 -262144
-1 -1;
#X obj 440 521 pix_texture;
#X obj 321 478 gemhead 99;
#X obj 355 451 tgl 15 0 empty empty empty 17 7 0 10 -262144 -1 -1 0
1;
#X obj 334 513 pix_write;
#X obj 180 179 gemhead 10;
#X obj 435 385 gemhead 30;
#X symbolatom 504 249 80 0 0 0 - - -;
#X msg 533 317 open /test00002.tif;
#X msg 432 310 open \$1;
#X msg 539 348 open /test00004.jpg;
#X obj 289 514 bng 15 250 50 0 empty empty empty 17 7 0 10 -262144
-1 -1;
#X obj 525 220 bng 15 250 50 0 empty empty empty 17 7 0 10 -262144
-1 -1;
#X msg 516 294 open /Users/debeul/Desktop/snap_recompose/test00001.jpg
;
#X msg 322 409 file shot;
#X msg 334 376 file shot 80;
#X msg 158 271 file /Users/debeul/Desktop/snap_recompose/shot;
#X obj 438 444 color 1 0 0 1;
#X obj 152 568 tgl 15 0 empty empty empty 17 7 0 10 -262144 -1 -1 0
1;
#X obj 166 589 rectangle 4 3;
#X obj 166 563 gemhead 5;
#X obj 435 548 rectangle 2 1.5;
#X obj -14 476 rectangle 2 1.5;
#X obj 334 221 pack f f;
#X obj 347 194 t b f;
#X obj 304 42 vsl 15 128 -4 4 0 0 empty empty empty 0 -9 0 10 -262144
-1 -1 0 1;
#X floatatom 266 161 5 0 0 0 - - -;
#X obj 322 117 + 4;
#X floatatom 364 118 5 0 0 0 - - -;
#X obj 322 140 / 8;
#X floatatom 365 141 5 0 0 0 - - -;
#X obj 321 162 * 500;
#X floatatom 366 163 5 0 0 0 - - -;
#X obj 457 44 vsl 15 128 -4 4 0 0 empty empty empty 0 -9 0 10 -262144
-1 -1 0 1;
#X floatatom 425 155 5 0 0 0 - - -;
#X obj 481 111 + 4;
#X floatatom 523 112 5 0 0 0 - - -;
#X obj 481 134 / 8;
#X floatatom 524 135 5 0 0 0 - - -;
#X obj 480 156 * 500;
#X floatatom 525 157 5 0 0 0 - - -;
#X obj -15 398 translateXYZ 1.5 -1 0;
#X obj 141 308 + 4;
#X floatatom 183 309 5 0 0 0 - - -;
#X obj 141 331 / 8;
#X floatatom 184 332 5 0 0 0 - - -;
#X obj 140 353 * 500;
#X floatatom 185 354 5 0 0 0 - - -;
#X obj 162 432 pack f f;
#X obj 175 405 t b f;
#X obj 219 288 + 4;
#X floatatom 261 289 5 0 0 0 - - -;
#X obj 219 311 / 8;
#X floatatom 262 312 5 0 0 0 - - -;
#X obj 218 333 * 500;
#X floatatom 263 334 5 0 0 0 - - -;
#X msg 115 284 1.5;
#X msg 294 302 -1;
#X msg 249 25 2;
#X msg 417 40 1.5;
#X msg 145 227 dimen 320 240;
#X msg 304 245 320 240;
#X msg 177 469 220 95;
#X obj 438 494 translateXYZ 1.5 2 0;
#X msg 372 246 245 183;
#X text 39 39 514;
#X msg 164 204 dimen 160 120;
#X obj 40 239 pix_rgba;
#X msg 251 546 quality 1;
#X obj 28 273 pix_resize 320 240;
#X obj 25 305 color 0 0.8 0.5 1;
#X connect 1 0 0 0;
#X connect 2 0 0 0;
#X connect 3 0 16 0;
#X connect 4 0 78 0;
#X connect 5 0 33 0;
#X connect 6 0 52 0;
#X connect 7 0 0 0;
#X connect 8 0 28 0;
#X connect 9 0 17 0;
#X connect 10 0 18 0;
#X connect 10 0 20 0;
#X connect 11 0 10 0;
#X connect 12 0 32 0;
#X connect 13 0 15 0;
#X connect 14 0 13 0;
#X connect 16 0 4 0;
#X connect 17 0 8 0;
#X connect 19 0 8 0;
#X connect 20 0 8 0;
#X connect 21 0 8 0;
#X connect 22 0 15 0;
#X connect 23 0 18 0;
#X connect 24 0 8 0;
#X connect 25 0 15 0;
#X connect 26 0 15 0;
#X connect 27 0 15 0;
#X connect 28 0 74 0;
#X connect 29 0 31 0;
#X connect 31 0 30 0;
#X connect 34 0 15 2;
#X connect 35 0 34 0;
#X connect 35 1 34 1;
#X connect 36 0 37 0;
#X connect 36 0 38 0;
#X connect 38 0 39 0;
#X connect 38 0 40 0;
#X connect 40 0 41 0;
#X connect 40 0 42 0;
#X connect 42 0 43 0;
#X connect 42 0 34 0;
#X connect 44 0 45 0;
#X connect 44 0 46 0;
#X connect 46 0 47 0;
#X connect 46 0 48 0;
#X connect 48 0 49 0;
#X connect 48 0 50 0;
#X connect 50 0 51 0;
#X connect 50 0 35 0;
#X connect 52 0 5 0;
#X connect 53 0 54 0;
#X connect 53 0 55 0;
#X connect 55 0 56 0;
#X connect 55 0 57 0;
#X connect 57 0 58 0;
#X connect 57 0 59 0;
#X connect 59 0 15 1;
#X connect 60 0 59 0;
#X connect 60 1 59 1;
#X connect 61 0 62 0;
#X connect 61 0 63 0;
#X connect 63 0 64 0;
#X connect 63 0 65 0;
#X connect 65 0 66 0;
#X connect 65 0 60 0;
#X connect 67 0 53 0;
#X connect 68 0 61 0;
#X connect 69 0 36 0;
#X connect 70 0 44 0;
#X connect 71 0 4 0;
#X connect 72 0 15 2;
#X connect 73 0 15 1;
#X connect 74 0 12 0;
#X connect 75 0 15 2;
#X connect 77 0 4 0;
#X connect 78 0 80 0;
#X connect 79 0 5 0;
#X connect 80 0 81 0;
#X connect 81 0 6 0;
