#N canvas 639 22 589 403 10;
#X obj 81 83 gemwin;
#X msg 82 55 create \, 1;
#X msg 83 35 destroy \, 0;
#X msg 154 37 reset;
#X text 180 111 514;
#N canvas 486 51 336 299 feedback_cam 0;
#X obj 44 37 inlet;
#X obj 44 67 tgl 15 0 empty empty empty 17 7 0 10 -262144 -1 -1 0 1
;
#X obj 62 88 pix_video;
#X obj 62 188 pix_texture;
#X obj 62 149 separator;
#X obj 62 67 gemhead 10;
#X msg 167 97 dimen 320 240;
#X obj 62 109 pix_rgba;
#X obj 60 169 translateXYZ 2.2 -2.65 0;
#X msg 135 41 dialog;
#X msg 187 74 dimen 80 60;
#X msg 188 41 dimen 320 240;
#X msg 126 211 quality 1;
#X obj 62 129 pix_resize 320 240;
#X obj 62 240 rectangle 1.2 0.9;
#X connect 0 0 1 0;
#X connect 1 0 5 0;
#X connect 2 0 7 0;
#X connect 3 0 14 0;
#X connect 4 0 8 0;
#X connect 5 0 2 0;
#X connect 6 0 13 0;
#X connect 7 0 13 0;
#X connect 8 0 3 0;
#X connect 9 0 2 0;
#X connect 10 0 2 0;
#X connect 10 0 13 0;
#X connect 11 0 2 0;
#X connect 12 0 3 0;
#X connect 13 0 4 0;
#X restore 32 139 pd feedback_cam;
#X obj 32 120 tgl 15 0 empty empty empty 17 7 0 10 -262144 -1 -1 0
1;
#N canvas 813 421 450 300 snapshot 1;
#X obj 338 94 gemhead 99;
#X obj 338 75 tgl 15 0 empty empty empty 17 7 0 10 -262144 -1 -1 0
1;
#X obj 217 237 pix_write;
#X obj 251 84 bng 15 250 50 0 empty empty empty 17 7 0 10 -262144 -1
-1;
#X obj 37 55 loadbang;
#X obj 36 77 t b b b;
#X obj 338 46 inlet;
#X obj 251 59 r snap;
#X obj 114 34 r init;
#X msg 59 97 312 28;
#X msg 35 120 150 110;
#X msg 19 142 file /Users/debeul/Desktop/snap_recompose/shot 50;
#X obj 349 153 pix_rgba;
#X connect 0 0 12 0;
#X connect 1 0 0 0;
#X connect 3 0 2 0;
#X connect 4 0 5 0;
#X connect 5 0 10 0;
#X connect 5 1 9 0;
#X connect 5 2 11 0;
#X connect 6 0 1 0;
#X connect 7 0 3 0;
#X connect 8 0 5 0;
#X connect 9 0 2 1;
#X connect 10 0 2 2;
#X connect 11 0 2 0;
#X connect 12 0 2 0;
#X restore 36 230 pd snapshot;
#X obj 36 210 tgl 15 0 empty empty empty 17 7 0 10 -262144 -1 -1 0
1;
#N canvas 654 120 626 490 final 1;
#X obj 225 328 tgl 15 0 empty empty empty 17 7 0 10 -262144 -1 -1 0
1;
#X obj 252 237 openpanel;
#X obj 251 217 bng 15 250 50 0 empty empty empty 17 7 0 10 -262144
-1 -1;
#X obj 252 414 pix_texture;
#X symbolatom 266 262 50 0 0 0 - - -;
#X msg 252 283 open \$1;
#X obj 250 323 gemhead 5;
#X obj 245 19 inlet;
#X obj 58 216 symbol;
#X obj 255 64 r write_file;
#X obj 255 99 delay 250;
#X obj 284 133 r snap_index;
#X obj 250 142 i;
#X floatatom 318 158 5 0 0 0 - - -;
#X obj 252 395 translateXYZ 0 1 0;
#X obj 250 433 rectangle 4 3;
#X obj 222 139 bng 15 250 50 0 empty empty empty 17 7 0 10 -262144
-1 -1;
#X obj 397 349 tgl 15 0 empty empty empty 17 7 0 10 -262144 -1 -1 0
1;
#X obj 252 344 pix_image;
#X msg 19 175 /Users/debeul/Desktop/snap_recompose/caca\$1.jpg;
#X connect 0 0 6 0;
#X connect 1 0 4 0;
#X connect 1 0 5 0;
#X connect 2 0 1 0;
#X connect 3 0 15 0;
#X connect 5 0 18 0;
#X connect 6 0 18 0;
#X connect 7 0 0 0;
#X connect 8 0 5 0;
#X connect 9 0 10 0;
#X connect 10 0 12 0;
#X connect 11 0 12 1;
#X connect 11 0 13 0;
#X connect 12 0 19 0;
#X connect 14 0 3 0;
#X connect 16 0 12 0;
#X connect 18 0 14 0;
#X connect 19 0 8 0;
#X restore 38 363 pd final;
#X obj 209 284 bng 25 250 50 0 snap empty snap 1 -10 0 10 -4034 -1
-1;
#X obj 91 282 bng 25 250 50 0 init empty init 1 -10 0 10 -260097 -1
-1;
#X obj 18 364 tgl 15 0 empty empty empty 17 7 0 10 -262144 -1 -1 0
1;
#N canvas 230 294 252 119 snap_index 0;
#X obj 40 15 inlet;
#X obj 70 41 + 1;
#X floatatom 97 41 5 0 0 0 - - -;
#X obj 49 63 s snap_index;
#X obj 138 10 r init;
#X msg 138 32 -1;
#X obj 40 40 i -1;
#X connect 0 0 6 0;
#X connect 1 0 2 0;
#X connect 1 0 3 0;
#X connect 1 0 6 1;
#X connect 4 0 5 0;
#X connect 5 0 6 1;
#X connect 6 0 1 0;
#X restore 197 319 pd snap_index;
#X obj 308 287 bng 20 250 50 0 hack_again empty hack_again -15 -10
0 10 -258113 -1 -1;
#X obj 303 189 rectangle 4 3;
#X obj 298 156 gemhead 1;
#X obj 278 159 tgl 15 0 empty empty empty 17 7 0 10 -262144 -1 -1 0
1;
#X connect 1 0 0 0;
#X connect 2 0 0 0;
#X connect 3 0 0 0;
#X connect 6 0 5 0;
#X connect 8 0 7 0;
#X connect 10 0 13 0;
#X connect 12 0 9 0;
#X connect 16 0 15 0;
#X connect 17 0 16 0;
