#N canvas 438 82 887 681 10;
#X obj 28 153 gemwin;
#X msg 29 125 create \, 1;
#X msg 93 127 destroy \, 0;
#X msg 148 134 reset;
#X obj 534 419 pix_image;
#X obj 518 400 tgl 15 0 empty empty empty 17 7 0 10 -262144 -1 -1 0
1;
#X obj 522 240 openpanel;
#X obj 521 220 bng 15 250 50 0 empty empty empty 17 7 0 10 -262144
-1 -1;
#X obj 537 531 pix_texture;
#X obj 321 478 gemhead 99;
#X obj 355 451 tgl 15 0 empty empty empty 17 7 0 10 -262144 -1 -1 0
1;
#X obj 334 513 pix_write;
#X symbolatom 601 259 80 0 0 0 - - -;
#X msg 630 327 open /test00002.tif;
#X msg 529 320 open \$1;
#X msg 636 358 open /test00004.jpg;
#X obj 289 514 bng 15 250 50 0 empty empty empty 17 7 0 10 -262144
-1 -1;
#X obj 622 230 bng 15 250 50 0 empty empty empty 17 7 0 10 -262144
-1 -1;
#X msg 613 304 open /Users/debeul/Desktop/snap_recompose/test00001.jpg
;
#X msg 322 409 file shot;
#X msg 334 376 file shot 80;
#X obj 535 454 color 1 0 0 1;
#X obj 152 568 tgl 15 0 empty empty empty 17 7 0 10 -262144 -1 -1 0
1;
#X obj 166 589 rectangle 4 3;
#X obj 166 563 gemhead 5;
#X obj 68 524 rectangle 2 1.5;
#X obj 334 221 pack f f;
#X obj 347 194 t b f;
#X obj 304 42 vsl 15 128 -4 4 0 0 empty empty empty 0 -9 0 10 -262144
-1 -1 0 1;
#X floatatom 266 161 5 0 0 0 - - -;
#X obj 322 117 + 4;
#X floatatom 364 118 5 0 0 0 - - -;
#X obj 322 140 / 8;
#X floatatom 365 141 5 0 0 0 - - -;
#X obj 321 162 * 500;
#X floatatom 366 163 5 0 0 0 - - -;
#X obj 457 44 vsl 15 128 -4 4 0 0 empty empty empty 0 -9 0 10 -262144
-1 -1 0 1;
#X floatatom 425 155 5 0 0 0 - - -;
#X obj 481 111 + 4;
#X floatatom 523 112 5 0 0 0 - - -;
#X obj 481 134 / 8;
#X floatatom 524 135 5 0 0 0 - - -;
#X obj 480 156 * 500;
#X floatatom 525 157 5 0 0 0 - - -;
#X obj 199 291 + 4;
#X floatatom 230 292 5 0 0 0 - - -;
#X obj 199 314 / 8;
#X floatatom 231 315 5 0 0 0 - - -;
#X obj 198 336 * 500;
#X floatatom 232 337 5 0 0 0 - - -;
#X obj 162 432 pack f f;
#X obj 175 405 t b f;
#X obj 267 296 + 4;
#X floatatom 296 297 5 0 0 0 - - -;
#X obj 267 319 / 8;
#X floatatom 297 320 5 0 0 0 - - -;
#X obj 266 341 * 500;
#X floatatom 298 342 5 0 0 0 - - -;
#X msg 200 269 1.5;
#X msg 292 272 -1;
#X msg 249 25 2;
#X msg 417 40 1.5;
#X msg 254 213 320 240;
#X msg 17 514 245 183;
#X text 39 39 514;
#X msg 66 457 280 95;
#X msg 16 537 220 95;
#X msg 59 431 122 183;
#N canvas 66 468 336 299 feedback_cam 0;
#X obj 44 37 inlet;
#X obj 44 67 tgl 15 0 empty empty empty 17 7 0 10 -262144 -1 -1 0 1
;
#X obj 62 88 pix_video;
#X obj 62 188 pix_texture;
#X obj 62 149 separator;
#X obj 62 67 gemhead 10;
#X msg 167 97 dimen 320 240;
#X msg 186 74 dimen 160 120;
#X obj 62 109 pix_rgba;
#X msg 126 211 quality 1;
#X obj 62 129 pix_resize 320 240;
#X obj 62 240 rectangle 1.7 1.27;
#X obj 61 168 translateXYZ 2.1 -2.5 0;
#X connect 0 0 1 0;
#X connect 1 0 5 0;
#X connect 2 0 8 0;
#X connect 3 0 11 0;
#X connect 4 0 12 0;
#X connect 5 0 2 0;
#X connect 6 0 2 0;
#X connect 7 0 2 0;
#X connect 8 0 10 0;
#X connect 9 0 3 0;
#X connect 10 0 4 0;
#X connect 12 0 3 0;
#X restore 406 288 pd feedback_cam;
#X obj 532 558 rectangle 4 3;
#X obj 535 504 translateXYZ 0 0 0;
#X obj 532 395 gemhead 5;
#X msg 229 539 file /home/hellocatfood/Desktop/snap_recompose/shot
10;
#X connect 1 0 0 0;
#X connect 2 0 0 0;
#X connect 3 0 0 0;
#X connect 4 0 21 0;
#X connect 5 0 71 0;
#X connect 6 0 12 0;
#X connect 6 0 14 0;
#X connect 7 0 6 0;
#X connect 8 0 69 0;
#X connect 9 0 11 0;
#X connect 10 0 9 0;
#X connect 13 0 4 0;
#X connect 14 0 4 0;
#X connect 15 0 4 0;
#X connect 16 0 11 0;
#X connect 17 0 12 0;
#X connect 18 0 4 0;
#X connect 19 0 11 0;
#X connect 20 0 11 0;
#X connect 21 0 70 0;
#X connect 22 0 24 0;
#X connect 24 0 23 0;
#X connect 26 0 11 2;
#X connect 27 0 26 0;
#X connect 27 1 26 1;
#X connect 28 0 29 0;
#X connect 28 0 30 0;
#X connect 30 0 31 0;
#X connect 30 0 32 0;
#X connect 32 0 33 0;
#X connect 32 0 34 0;
#X connect 34 0 35 0;
#X connect 34 0 26 0;
#X connect 36 0 37 0;
#X connect 36 0 38 0;
#X connect 38 0 39 0;
#X connect 38 0 40 0;
#X connect 40 0 41 0;
#X connect 40 0 42 0;
#X connect 42 0 43 0;
#X connect 42 0 27 0;
#X connect 44 0 45 0;
#X connect 44 0 46 0;
#X connect 46 0 47 0;
#X connect 46 0 48 0;
#X connect 48 0 49 0;
#X connect 48 0 50 0;
#X connect 50 0 11 1;
#X connect 51 0 50 0;
#X connect 51 1 50 1;
#X connect 52 0 53 0;
#X connect 52 0 54 0;
#X connect 54 0 55 0;
#X connect 54 0 56 0;
#X connect 56 0 57 0;
#X connect 56 0 51 0;
#X connect 58 0 44 0;
#X connect 59 0 52 0;
#X connect 60 0 28 0;
#X connect 61 0 36 0;
#X connect 62 0 11 2;
#X connect 63 0 11 2;
#X connect 65 0 11 1;
#X connect 66 0 11 1;
#X connect 67 0 11 2;
#X connect 70 0 8 0;
#X connect 71 0 4 0;
#X connect 72 0 11 0;
